<svg id="Layer_1" data-name="Layer 1" xmlns="http://www.w3.org/2000/svg" viewBox="0 0 2000 2000"><defs><style>.cls-1{fill:none;stroke:#105840;stroke-miterlimit:10;stroke-width:2px;}</style></defs><path class="cls-1" d="M1330.07,1185.72h75v-4h-75Zm-153.35-4,1.37,4h61.71l1.35-4Zm-88.91-178.59h-75v31h75Zm0,41.24h-75v28.45h75Zm0,38.69h-75v23.32h75Zm0,33.56h-75v17.64h75Zm0,22.76h-75v10.24h75Zm0,15.36h-75V1165h75Zm0,15.36h-75v6.5h75ZM1252,1149.64l3.47-10.24h-93.29l3.51,10.24Zm-91.57-15.36h96.77l6-17.64H1154.43Zm86.36,30.72,3.47-10.24h-82.82L1171,1165Zm27.77-81.92H1142.94l8,23.32h115.76ZM1175,1176.62h67.92l2.2-6.5h-72.35Zm-162.13,9.1h75v-4h-75Zm97.46-197.93h73.11l-57.86-173.51H1012.84V987.79h75v-62.7h1Zm15.88,46.36h72.69l-10.34-31h-73Zm161.54,10.24h-68l-8,25.32h-1l-8.44-25.32h-72.6l9.74,28.45h138.64Zm14-41.24h-69l-9.78,31h68.22Zm28.37-15.36h75V814.28H1292.33l-54.74,173.51h69.32l22.14-65.3h1Zm0,46.36h75v-31h-75Zm0,38.69h75v-28.45h-75Zm0,33.56h75v-23.32h-75Zm0,27.88h75v-17.64h-75Zm0,15.36h75V1139.4h-75Zm0,15.36h75v-10.24h-75Zm75,5.12h-75v6.5h75Z"/><path class="cls-1" d="M857,1181.74l2.62,4H960.19l-2.77-4Zm-233.23,4h80.15v-4H623.77Zm0-51.44h80.15v-17.64H623.77Zm80.15,5.12H623.78v10.24h80.14Zm-80.15-33h80.15v-23.32H623.77Zm0-33.56h80.15v-6.77l21-21.68H623.77Zm0,92.16h80.15v-10.24H623.77Zm209.52-161.85H623.77v31H734.9l15-15.42L760,1034.15h94.84ZM862,1044.39H766.73l18.7,28.45h96.29Zm26.89,38.69H792.16l15.33,23.32h97.56Zm23.33,33.56H814.22l11.59,17.64h98.62ZM928,1139.4H829.17l6.73,10.24h99.21Zm10.67,15.36H839.27L846,1165h99.78Zm-314.89,21.86h80.15v-6.5H623.77ZM804,961,946.4,814.28h-100l-142.43,154v-154H623.77V987.79H822.61Zm149.88,215.64-4.52-6.5h-100l4.28,6.5Z"/></svg>