<svg id="Layer_1" data-name="Layer 1" xmlns="http://www.w3.org/2000/svg" viewBox="0 0 2000 2000"><defs><style>.cls-1{fill:#231f20;}.cls-2,.cls-3{fill:none;stroke:#105840;}.cls-2{stroke-width:1.36px;}.cls-3{stroke-miterlimit:7.11;stroke-width:4.83px;}.cls-4{fill:#105840;}</style></defs><path class="cls-1" d="M690.62,709.46a17.94,17.94,0,0,1,6.82,1.16A13,13,0,0,1,702,713.7a12,12,0,0,1,2.57,4.37,16.27,16.27,0,0,1,0,10.14,12,12,0,0,1-2.57,4.4,13,13,0,0,1-4.58,3.08,17.94,17.94,0,0,1-6.82,1.16h-9.87v15.32h-9.39V709.46Zm-2.57,20.09a20.87,20.87,0,0,0,3.11-.23,7.28,7.28,0,0,0,2.63-.93,5.07,5.07,0,0,0,1.83-1.95,6.89,6.89,0,0,0,.68-3.28,7,7,0,0,0-.68-3.3,5.11,5.11,0,0,0-1.83-1.94,7.27,7.27,0,0,0-2.63-.92,19.6,19.6,0,0,0-3.11-.24h-7.3v12.79Z"/><path class="cls-1" d="M725.13,709.46v16.39h17.29V709.46h9.39v42.71h-9.39V733.74H725.13v18.43h-9.39V709.46Z"/><path class="cls-1" d="M764.13,722.11a21.39,21.39,0,0,1,4.13-7.15,18.93,18.93,0,0,1,6.61-4.78,23.3,23.3,0,0,1,17.67,0,19,19,0,0,1,6.58,4.78,21.56,21.56,0,0,1,4.13,7.15,26.84,26.84,0,0,1,1.43,8.88,25.94,25.94,0,0,1-1.43,8.7,20.9,20.9,0,0,1-4.13,7,18.93,18.93,0,0,1-6.58,4.7,23.81,23.81,0,0,1-17.67,0,18.86,18.86,0,0,1-6.61-4.7,20.74,20.74,0,0,1-4.13-7,25.7,25.7,0,0,1-1.44-8.7A26.59,26.59,0,0,1,764.13,722.11Zm8.58,14.11a14,14,0,0,0,2,4.58,10.24,10.24,0,0,0,3.59,3.26,12.38,12.38,0,0,0,10.76,0,10.24,10.24,0,0,0,3.59-3.26,13.82,13.82,0,0,0,2-4.58,21.64,21.64,0,0,0,.63-5.23,23.27,23.27,0,0,0-.63-5.44,14.18,14.18,0,0,0-2-4.7,10.23,10.23,0,0,0-3.59-3.29,12.47,12.47,0,0,0-10.76,0,10.23,10.23,0,0,0-3.59,3.29,14.41,14.41,0,0,0-2,4.7,23.81,23.81,0,0,0-.62,5.44A22.15,22.15,0,0,0,772.71,736.22Z"/><path class="cls-1" d="M812.16,717.35v-7.89h35v7.89h-12.8v34.82H825V717.35Z"/><path class="cls-1" d="M856.07,722.11a21.36,21.36,0,0,1,4.12-7.15,19,19,0,0,1,6.61-4.78,23.33,23.33,0,0,1,17.68,0,19.09,19.09,0,0,1,6.58,4.78,21.36,21.36,0,0,1,4.12,7.15,26.59,26.59,0,0,1,1.44,8.88,25.7,25.7,0,0,1-1.44,8.7,20.71,20.71,0,0,1-4.12,7,19,19,0,0,1-6.58,4.7,23.83,23.83,0,0,1-17.68,0,19,19,0,0,1-6.61-4.7,20.71,20.71,0,0,1-4.12-7,25.7,25.7,0,0,1-1.44-8.7A26.59,26.59,0,0,1,856.07,722.11Zm8.58,14.11a14.24,14.24,0,0,0,2,4.58,10.24,10.24,0,0,0,3.59,3.26,12.4,12.4,0,0,0,10.77,0,10.33,10.33,0,0,0,3.59-3.26,14.24,14.24,0,0,0,2-4.58,21.64,21.64,0,0,0,.63-5.23,23.27,23.27,0,0,0-.63-5.44,14.61,14.61,0,0,0-2-4.7,10.32,10.32,0,0,0-3.59-3.29,12.49,12.49,0,0,0-10.77,0,10.23,10.23,0,0,0-3.59,3.29,14.61,14.61,0,0,0-2,4.7A23.27,23.27,0,0,0,864,731,21.64,21.64,0,0,0,864.65,736.22Z"/><path class="cls-1" d="M932.8,751.84a15.82,15.82,0,0,1-6.16,1.28,22,22,0,0,1-8.82-1.7,19,19,0,0,1-6.61-4.7,20.71,20.71,0,0,1-4.12-7,25.7,25.7,0,0,1-1.44-8.7,26.59,26.59,0,0,1,1.44-8.88,21.36,21.36,0,0,1,4.12-7.15,19,19,0,0,1,6.61-4.78,21.49,21.49,0,0,1,8.82-1.74,20.64,20.64,0,0,1,6.37,1,18,18,0,0,1,5.57,2.9,15.71,15.71,0,0,1,6.07,11.19h-9a9,9,0,0,0-3.23-5.39,9.45,9.45,0,0,0-5.81-1.79,11,11,0,0,0-5.38,1.22,10.23,10.23,0,0,0-3.59,3.29,14.61,14.61,0,0,0-2,4.7A23.27,23.27,0,0,0,915,731a21.64,21.64,0,0,0,.63,5.23,14.24,14.24,0,0,0,2,4.58,10.24,10.24,0,0,0,3.59,3.26,10.92,10.92,0,0,0,5.38,1.23q4.67,0,7.21-2.36a10.33,10.33,0,0,0,3-6.85h-9.45v-7h17.95v23.09h-6l-1-4.85A14.15,14.15,0,0,1,932.8,751.84Z"/><path class="cls-1" d="M980.42,709.46a13.92,13.92,0,0,1,5.17.92,12.16,12.16,0,0,1,3.95,2.55,11.15,11.15,0,0,1,2.51,3.74,11.92,11.92,0,0,1,.87,4.57,12.78,12.78,0,0,1-1.59,6.52,10,10,0,0,1-5.17,4.19v.12a7.15,7.15,0,0,1,2.87,1.46,8.12,8.12,0,0,1,1.85,2.34,10.83,10.83,0,0,1,1,3,25.44,25.44,0,0,1,.45,3.22q.06,1,.12,2.4c0,.92.11,1.85.21,2.81a20.26,20.26,0,0,0,.47,2.72,6.3,6.3,0,0,0,1,2.19h-9.39a16.54,16.54,0,0,1-1-4.85c-.11-1.87-.3-3.67-.53-5.38a8.48,8.48,0,0,0-2-4.91q-1.56-1.54-5.08-1.55h-9.39v16.69h-9.39V709.46Zm-3.36,19.32a7.1,7.1,0,0,0,4.85-1.44c1.08-1,1.61-2.51,1.61-4.66s-.53-3.58-1.61-4.52a7.2,7.2,0,0,0-4.85-1.4H966.78v12Z"/><path class="cls-1" d="M1026.35,709.46l16,42.71h-9.75l-3.23-9.52h-16l-3.35,9.52h-9.45l16.15-42.71Zm.54,26.2L1021.51,720h-.12l-5.57,15.67Z"/><path class="cls-1" d="M1069.77,709.46a17.9,17.9,0,0,1,6.82,1.16,12.86,12.86,0,0,1,4.58,3.08,11.89,11.89,0,0,1,2.57,4.37,16.27,16.27,0,0,1,0,10.14,11.85,11.85,0,0,1-2.57,4.4,12.86,12.86,0,0,1-4.58,3.08,17.9,17.9,0,0,1-6.82,1.16h-9.86v15.32h-9.4V709.46Zm-2.57,20.09a21,21,0,0,0,3.12-.23,7.16,7.16,0,0,0,2.62-.93,5.07,5.07,0,0,0,1.83-1.95,6.77,6.77,0,0,0,.69-3.28,6.85,6.85,0,0,0-.69-3.3,5.11,5.11,0,0,0-1.83-1.94,7.15,7.15,0,0,0-2.62-.92,19.73,19.73,0,0,0-3.12-.24h-7.29v12.79Z"/><path class="cls-1" d="M1104.29,709.46v16.39h17.28V709.46H1131v42.71h-9.39V733.74h-17.28v18.43h-9.4V709.46Z"/><path class="cls-1" d="M1150.82,741.64a6.87,6.87,0,0,0,2.07,2.42,9,9,0,0,0,3,1.38,14.63,14.63,0,0,0,3.58.44,20.23,20.23,0,0,0,2.7-.2,9.33,9.33,0,0,0,2.69-.81,5.86,5.86,0,0,0,2.09-1.65,4.09,4.09,0,0,0,.84-2.66,3.77,3.77,0,0,0-1.1-2.81,9.08,9.08,0,0,0-2.91-1.8,29.87,29.87,0,0,0-4.07-1.25c-1.51-.36-3-.76-4.6-1.19a40.7,40.7,0,0,1-4.66-1.47,15.85,15.85,0,0,1-4.07-2.25,10,10,0,0,1-4-8.43,11.14,11.14,0,0,1,1.41-5.71,12.57,12.57,0,0,1,3.67-4,16,16,0,0,1,5.15-2.39,21.86,21.86,0,0,1,5.74-.78,27.15,27.15,0,0,1,6.43.75,16.16,16.16,0,0,1,5.47,2.42,12.32,12.32,0,0,1,3.8,4.28,13.07,13.07,0,0,1,1.41,6.31h-9.09a7.64,7.64,0,0,0-.81-3.17,5.3,5.3,0,0,0-1.83-2,7.88,7.88,0,0,0-2.6-1,16,16,0,0,0-3.2-.3,11,11,0,0,0-2.27.24,6.1,6.1,0,0,0-2.07.84,4.91,4.91,0,0,0-1.52,1.49,4,4,0,0,0-.6,2.28,3.84,3.84,0,0,0,.48,2,4.31,4.31,0,0,0,1.88,1.43,24.33,24.33,0,0,0,3.89,1.32q2.49.66,6.49,1.67c.8.16,1.9.45,3.32.87a15.9,15.9,0,0,1,4.22,2,12.71,12.71,0,0,1,3.62,3.68,10.48,10.48,0,0,1,1.52,5.88,13.2,13.2,0,0,1-1.13,5.45,12,12,0,0,1-3.38,4.34,16.42,16.42,0,0,1-5.57,2.84,26.59,26.59,0,0,1-7.69,1,27.34,27.34,0,0,1-6.84-.86,17.09,17.09,0,0,1-5.86-2.73,13.29,13.29,0,0,1-4-4.72A14.09,14.09,0,0,1,1141,738H1150A7.81,7.81,0,0,0,1150.82,741.64Z"/><path class="cls-1" d="M1228.1,709.46a26.58,26.58,0,0,1,5.57.54,11.83,11.83,0,0,1,4.3,1.76,8.25,8.25,0,0,1,2.78,3.26,11.4,11.4,0,0,1,1,5,9.35,9.35,0,0,1-1.47,5.39,10.67,10.67,0,0,1-4.33,3.53,10.22,10.22,0,0,1,5.89,4,13,13,0,0,1,.68,12.44,10.82,10.82,0,0,1-3.37,3.85,15,15,0,0,1-4.85,2.22,21.75,21.75,0,0,1-5.59.72H1208V709.46Zm-1.2,17.29a6.72,6.72,0,0,0,4.13-1.2,4.52,4.52,0,0,0,1.62-3.89,5,5,0,0,0-.54-2.45,4,4,0,0,0-1.44-1.5,6.15,6.15,0,0,0-2.06-.75,14.73,14.73,0,0,0-2.42-.2h-8.79v10Zm.54,18.12a12.57,12.57,0,0,0,2.64-.27,6.43,6.43,0,0,0,2.21-.9,4.75,4.75,0,0,0,1.53-1.7,6,6,0,0,0,.56-2.75c0-2.2-.62-3.76-1.85-4.7a7.91,7.91,0,0,0-4.91-1.41H1217.4v11.73Z"/><path class="cls-1" d="M1249.93,709.46h10.53l10,16.87,9.93-16.87h10.48L1275,735.78v16.39h-9.39V735.54Z"/><path class="cls-1" d="M652.82,1290.78v-27.15H642.29v-6.4a20.07,20.07,0,0,0,4.28-.33,11.14,11.14,0,0,0,3.71-1.38,9.05,9.05,0,0,0,2.78-2.6,9.22,9.22,0,0,0,1.49-4h6.76v41.87Z"/><path class="cls-1" d="M678,1259.41a18.42,18.42,0,0,1,3.32-6.67,12,12,0,0,1,4.88-3.59,16.08,16.08,0,0,1,5.89-1.07,16.32,16.32,0,0,1,6,1.07,12.17,12.17,0,0,1,4.9,3.59,18,18,0,0,1,3.35,6.67,36.64,36.64,0,0,1,1.23,10.26,38.18,38.18,0,0,1-1.23,10.5,18,18,0,0,1-3.35,6.73,12.17,12.17,0,0,1-4.9,3.59,16.53,16.53,0,0,1-6,1.07,16.29,16.29,0,0,1-5.89-1.07,12,12,0,0,1-4.88-3.59,18.49,18.49,0,0,1-3.32-6.73,38.22,38.22,0,0,1-1.22-10.5A36.68,36.68,0,0,1,678,1259.41Zm7.39,14.59a23.18,23.18,0,0,0,.75,4.91,10.36,10.36,0,0,0,2,4,4.8,4.8,0,0,0,4,1.67,5,5,0,0,0,4-1.67,10.4,10.4,0,0,0,2-4,23.18,23.18,0,0,0,.75-4.91c.08-1.69.12-3.13.12-4.33,0-.72,0-1.59,0-2.6s-.1-2.07-.24-3.15a28.9,28.9,0,0,0-.6-3.19,9.64,9.64,0,0,0-1.17-2.84,6.41,6.41,0,0,0-2-2,5.25,5.25,0,0,0-2.93-.78,5.1,5.1,0,0,0-2.9.78,6.26,6.26,0,0,0-1.92,2,10.51,10.51,0,0,0-1.16,2.84,21.85,21.85,0,0,0-.6,3.19q-.18,1.62-.21,3.15c0,1,0,1.88,0,2.6C685.3,1270.87,685.34,1272.31,685.42,1274Z"/><path class="cls-1" d="M715.77,1259.41a18.59,18.59,0,0,1,3.32-6.67,12,12,0,0,1,4.88-3.59,16.11,16.11,0,0,1,5.89-1.07,16.28,16.28,0,0,1,5.95,1.07,12.2,12.2,0,0,1,4.91,3.59,18.29,18.29,0,0,1,3.35,6.67,37.05,37.05,0,0,1,1.22,10.26,38.61,38.61,0,0,1-1.22,10.5,18.35,18.35,0,0,1-3.35,6.73,12.2,12.2,0,0,1-4.91,3.59,16.49,16.49,0,0,1-5.95,1.07,16.33,16.33,0,0,1-5.89-1.07,12,12,0,0,1-4.88-3.59,18.65,18.65,0,0,1-3.32-6.73,38.61,38.61,0,0,1-1.22-10.5A37.05,37.05,0,0,1,715.77,1259.41Zm7.39,14.59a23.18,23.18,0,0,0,.75,4.91,10.64,10.64,0,0,0,2,4,4.8,4.8,0,0,0,4,1.67,5,5,0,0,0,4-1.67,10.4,10.4,0,0,0,2-4,23.18,23.18,0,0,0,.75-4.91c.08-1.69.12-3.13.12-4.33,0-.72,0-1.59,0-2.6a29.16,29.16,0,0,0-.84-6.34,9.9,9.9,0,0,0-1.16-2.84,6.44,6.44,0,0,0-2-2,5.25,5.25,0,0,0-2.93-.78,5.1,5.1,0,0,0-2.9.78,6.13,6.13,0,0,0-1.91,2,10.85,10.85,0,0,0-1.17,2.84,21.85,21.85,0,0,0-.6,3.19q-.18,1.62-.21,3.15c0,1,0,1.88,0,2.6C723,1270.87,723.08,1272.31,723.16,1274Z"/><path class="cls-1" d="M775,1258.33a15.55,15.55,0,0,1,2.87-5.38,13.14,13.14,0,0,1,4.81-3.59,16.3,16.3,0,0,1,6.67-1.28,16.92,16.92,0,0,1,5.48.89,14,14,0,0,1,4.57,2.58,12.15,12.15,0,0,1,3.14,4.12,12.63,12.63,0,0,1,1.17,5.5,13.25,13.25,0,0,1-1,5.45,14.26,14.26,0,0,1-2.69,4,22.77,22.77,0,0,1-3.8,3.19c-1.41,1-2.84,1.91-4.28,2.85s-2.83,1.94-4.18,3a18.64,18.64,0,0,0-3.59,3.77h19.8v7.29H773.16a17.44,17.44,0,0,1,1.05-6.34,17,17,0,0,1,2.84-4.81,24.81,24.81,0,0,1,4.22-3.92c1.61-1.2,3.32-2.41,5.11-3.65.92-.64,1.9-1.29,2.93-1.94a19.55,19.55,0,0,0,2.85-2.19,11.62,11.62,0,0,0,2.15-2.69,6.72,6.72,0,0,0,.86-3.41,6.29,6.29,0,0,0-1.76-4.75,6.22,6.22,0,0,0-4.52-1.7,5.49,5.49,0,0,0-3.14.86,6.62,6.62,0,0,0-2.06,2.27,10.52,10.52,0,0,0-1.11,3.12,18.5,18.5,0,0,0-.33,3.37h-8.13A20.07,20.07,0,0,1,775,1258.33Z"/><path class="cls-1" d="M812.07,1259.41a18.59,18.59,0,0,1,3.32-6.67,12,12,0,0,1,4.88-3.59,16.11,16.11,0,0,1,5.89-1.07,16.28,16.28,0,0,1,6,1.07,12.27,12.27,0,0,1,4.91,3.59,18.29,18.29,0,0,1,3.35,6.67,37.05,37.05,0,0,1,1.22,10.26,38.61,38.61,0,0,1-1.22,10.5,18.35,18.35,0,0,1-3.35,6.73,12.27,12.27,0,0,1-4.91,3.59,16.49,16.49,0,0,1-6,1.07,16.33,16.33,0,0,1-5.89-1.07,12,12,0,0,1-4.88-3.59,18.65,18.65,0,0,1-3.32-6.73,38.61,38.61,0,0,1-1.22-10.5A37.05,37.05,0,0,1,812.07,1259.41Zm7.39,14.59a23.18,23.18,0,0,0,.75,4.91,10.5,10.5,0,0,0,2,4,4.8,4.8,0,0,0,3.95,1.67,5,5,0,0,0,4-1.67,10.4,10.4,0,0,0,2-4A23.18,23.18,0,0,0,833,1274c.08-1.69.12-3.13.12-4.33,0-.72,0-1.59,0-2.6a29.16,29.16,0,0,0-.84-6.34,9.9,9.9,0,0,0-1.16-2.84,6.54,6.54,0,0,0-2-2,5.25,5.25,0,0,0-2.93-.78,5.1,5.1,0,0,0-2.9.78,6.13,6.13,0,0,0-1.91,2,10.85,10.85,0,0,0-1.17,2.84,21.85,21.85,0,0,0-.6,3.19q-.18,1.62-.21,3.15c0,1,0,1.88,0,2.6C819.34,1270.87,819.38,1272.31,819.46,1274Z"/><path class="cls-1" d="M849.75,1259.41a18.59,18.59,0,0,1,3.32-6.67,12,12,0,0,1,4.88-3.59,16.11,16.11,0,0,1,5.89-1.07,16.28,16.28,0,0,1,5.95,1.07,12.2,12.2,0,0,1,4.91,3.59,18.29,18.29,0,0,1,3.35,6.67,37.05,37.05,0,0,1,1.22,10.26,38.61,38.61,0,0,1-1.22,10.5,18.35,18.35,0,0,1-3.35,6.73,12.2,12.2,0,0,1-4.91,3.59,16.49,16.49,0,0,1-5.95,1.07,16.33,16.33,0,0,1-5.89-1.07,12,12,0,0,1-4.88-3.59,18.65,18.65,0,0,1-3.32-6.73,38.61,38.61,0,0,1-1.22-10.5A37.05,37.05,0,0,1,849.75,1259.41Zm7.39,14.59a23.18,23.18,0,0,0,.75,4.91,10.64,10.64,0,0,0,2,4,4.8,4.8,0,0,0,4,1.67,5,5,0,0,0,4-1.67,10.27,10.27,0,0,0,2-4,23.18,23.18,0,0,0,.75-4.91c.08-1.69.12-3.13.12-4.33,0-.72,0-1.59,0-2.6a29.16,29.16,0,0,0-.84-6.34,9.9,9.9,0,0,0-1.16-2.84,6.44,6.44,0,0,0-2-2,5.25,5.25,0,0,0-2.93-.78,5.1,5.1,0,0,0-2.9.78,6.13,6.13,0,0,0-1.91,2,10.85,10.85,0,0,0-1.17,2.84,21.85,21.85,0,0,0-.6,3.19q-.18,1.62-.21,3.15c0,1,0,1.88,0,2.6C857,1270.87,857.06,1272.31,857.14,1274Z"/><path class="cls-1" d="M906.79,1281.09v-7.77L925,1248.91h7.6v25.18h5.56v7h-5.56v9.69h-8.08v-9.69Zm17.52-21.53-10.82,14.53h11v-14.53Z"/><path class="cls-1" d="M946.06,1259.41a18.27,18.27,0,0,1,3.32-6.67,12,12,0,0,1,4.87-3.59,16.91,16.91,0,0,1,11.84,0,12.2,12.2,0,0,1,4.91,3.59,18.29,18.29,0,0,1,3.35,6.67,37.05,37.05,0,0,1,1.22,10.26,38.61,38.61,0,0,1-1.22,10.5,18.35,18.35,0,0,1-3.35,6.73,12.2,12.2,0,0,1-4.91,3.59,16.91,16.91,0,0,1-11.84,0,12,12,0,0,1-4.87-3.59,18.33,18.33,0,0,1-3.32-6.73,38.18,38.18,0,0,1-1.23-10.5A36.64,36.64,0,0,1,946.06,1259.41Zm7.38,14.59a23.18,23.18,0,0,0,.75,4.91,10.64,10.64,0,0,0,2,4,4.82,4.82,0,0,0,3.95,1.67,5,5,0,0,0,4-1.67,10.27,10.27,0,0,0,2-4A23.18,23.18,0,0,0,967,1274c.08-1.69.12-3.13.12-4.33,0-.72,0-1.59,0-2.6a29.16,29.16,0,0,0-.84-6.34,9.63,9.63,0,0,0-1.16-2.84,6.44,6.44,0,0,0-2-2,5.22,5.22,0,0,0-2.93-.78,5.1,5.1,0,0,0-2.9.78,6.13,6.13,0,0,0-1.91,2,10.85,10.85,0,0,0-1.17,2.84,21.85,21.85,0,0,0-.6,3.19q-.18,1.62-.21,3.15c0,1,0,1.88,0,2.6C953.32,1270.87,953.36,1272.31,953.44,1274Z"/><path class="cls-1" d="M983.74,1259.41a18.27,18.27,0,0,1,3.32-6.67,12,12,0,0,1,4.87-3.59,16.91,16.91,0,0,1,11.84,0,12.2,12.2,0,0,1,4.91,3.59,18.29,18.29,0,0,1,3.35,6.67,37.05,37.05,0,0,1,1.22,10.26,38.61,38.61,0,0,1-1.22,10.5,18.35,18.35,0,0,1-3.35,6.73,12.2,12.2,0,0,1-4.91,3.59,16.91,16.91,0,0,1-11.84,0,12,12,0,0,1-4.87-3.59,18.33,18.33,0,0,1-3.32-6.73,38.18,38.18,0,0,1-1.23-10.5A36.64,36.64,0,0,1,983.74,1259.41Zm7.38,14.59a23.18,23.18,0,0,0,.75,4.91,10.64,10.64,0,0,0,2,4,4.82,4.82,0,0,0,4,1.67,5,5,0,0,0,4-1.67,10.27,10.27,0,0,0,2-4,23.18,23.18,0,0,0,.75-4.91c.08-1.69.12-3.13.12-4.33,0-.72,0-1.59,0-2.6a29.16,29.16,0,0,0-.84-6.34,9.63,9.63,0,0,0-1.16-2.84,6.44,6.44,0,0,0-2-2,5.22,5.22,0,0,0-2.93-.78,5.1,5.1,0,0,0-2.9.78,6.34,6.34,0,0,0-1.91,2,10.85,10.85,0,0,0-1.17,2.84,21.85,21.85,0,0,0-.6,3.19q-.18,1.62-.21,3.15c0,1,0,1.88,0,2.6C991,1270.87,991,1272.31,991.12,1274Z"/><path class="cls-1" d="M1043.7,1254.54A11.34,11.34,0,0,1,1047,1251a14.3,14.3,0,0,1,4.52-2.15,18.29,18.29,0,0,1,5.08-.72,16.29,16.29,0,0,1,6.58,1.19,13.89,13.89,0,0,1,4.34,2.9,10.71,10.71,0,0,1,2.36,3.65,10.26,10.26,0,0,1,.72,3.5,9.66,9.66,0,0,1-1.53,5.44,8.41,8.41,0,0,1-4.58,3.35v.12a9.56,9.56,0,0,1,5.81,3.56,10.88,10.88,0,0,1,2,6.67,11.73,11.73,0,0,1-1.35,5.8,12.23,12.23,0,0,1-3.55,4.07,15.64,15.64,0,0,1-5,2.42,20.57,20.57,0,0,1-5.74.81,23.42,23.42,0,0,1-5.89-.74,15.31,15.31,0,0,1-5.08-2.37,11.64,11.64,0,0,1-4.94-9.93,10.68,10.68,0,0,1,2.07-6.7,10,10,0,0,1,5.83-3.59v-.12a7.71,7.71,0,0,1-4.61-3.17,10.39,10.39,0,0,1-.3-10.4Zm6.1,26.49a6.9,6.9,0,0,0,1.59,2.24,6.72,6.72,0,0,0,2.36,1.44,8.19,8.19,0,0,0,2.87.51,7.63,7.63,0,0,0,2.84-.51,7,7,0,0,0,2.28-1.44,6.31,6.31,0,0,0,1.52-2.24,7.45,7.45,0,0,0,.54-2.87,6.4,6.4,0,0,0-.57-2.72,6.56,6.56,0,0,0-1.56-2.12,6.82,6.82,0,0,0-2.27-1.38,7.92,7.92,0,0,0-2.78-.47,8.18,8.18,0,0,0-5.26,1.7,5.94,5.94,0,0,0-2.16,4.93A7.1,7.1,0,0,0,1049.8,1281Zm2.28-16.65a7.37,7.37,0,0,0,4.48,1.4,7.05,7.05,0,0,0,4.48-1.4,4.9,4.9,0,0,0,1.8-4.1,8.17,8.17,0,0,0-.23-1.82,5.24,5.24,0,0,0-.94-1.89,5.34,5.34,0,0,0-1.91-1.5,7.32,7.32,0,0,0-3.2-.59,7.57,7.57,0,0,0-2.42.39,6.57,6.57,0,0,0-2.06,1.1,5.06,5.06,0,0,0-1.41,1.79,5.84,5.84,0,0,0-.51,2.52A4.78,4.78,0,0,0,1052.08,1264.38Z"/><path class="cls-1" d="M1080,1259.41a18.43,18.43,0,0,1,3.33-6.67,11.88,11.88,0,0,1,4.87-3.59,16.91,16.91,0,0,1,11.84,0,12.2,12.2,0,0,1,4.91,3.59,18.29,18.29,0,0,1,3.35,6.67,37.05,37.05,0,0,1,1.22,10.26,38.61,38.61,0,0,1-1.22,10.5,18.35,18.35,0,0,1-3.35,6.73,12.2,12.2,0,0,1-4.91,3.59,16.91,16.91,0,0,1-11.84,0,11.88,11.88,0,0,1-4.87-3.59,18.5,18.5,0,0,1-3.33-6.73,38.61,38.61,0,0,1-1.22-10.5A37.05,37.05,0,0,1,1080,1259.41Zm7.4,14.59a22.55,22.55,0,0,0,.74,4.91,10.51,10.51,0,0,0,2,4,4.78,4.78,0,0,0,3.94,1.67,5,5,0,0,0,4-1.67,10.14,10.14,0,0,0,2-4,22.56,22.56,0,0,0,.75-4.91c.08-1.69.12-3.13.12-4.33,0-.72,0-1.59,0-2.6a29.16,29.16,0,0,0-.84-6.34,9.63,9.63,0,0,0-1.16-2.84,6.44,6.44,0,0,0-2-2,5.22,5.22,0,0,0-2.93-.78,5.1,5.1,0,0,0-2.9.78,6.13,6.13,0,0,0-1.91,2,10.85,10.85,0,0,0-1.17,2.84,21.85,21.85,0,0,0-.6,3.19c-.11,1.08-.19,2.13-.21,3.15s0,1.88,0,2.6C1087.3,1270.87,1087.34,1272.31,1087.43,1274Z"/><path class="cls-1" d="M1117.78,1259.41a18.42,18.42,0,0,1,3.32-6.67,12,12,0,0,1,4.87-3.59,16.15,16.15,0,0,1,5.89-1.07,16.37,16.37,0,0,1,6,1.07,12.24,12.24,0,0,1,4.9,3.59,18.13,18.13,0,0,1,3.35,6.67,36.68,36.68,0,0,1,1.22,10.26,38.22,38.22,0,0,1-1.22,10.5,18.2,18.2,0,0,1-3.35,6.73,12.24,12.24,0,0,1-4.9,3.59,16.59,16.59,0,0,1-6,1.07,16.36,16.36,0,0,1-5.89-1.07,12,12,0,0,1-4.87-3.59,18.49,18.49,0,0,1-3.32-6.73,38.18,38.18,0,0,1-1.23-10.5A36.64,36.64,0,0,1,1117.78,1259.41Zm7.38,14.59a23.18,23.18,0,0,0,.75,4.91,10.51,10.51,0,0,0,2,4,4.78,4.78,0,0,0,3.94,1.67,5,5,0,0,0,4-1.67,10.28,10.28,0,0,0,2-4,23.18,23.18,0,0,0,.74-4.91c.08-1.69.13-3.13.13-4.33,0-.72,0-1.59,0-2.6a28.92,28.92,0,0,0-.24-3.15,31.4,31.4,0,0,0-.59-3.19,9.64,9.64,0,0,0-1.17-2.84,6.44,6.44,0,0,0-2-2,5.22,5.22,0,0,0-2.93-.78,5.1,5.1,0,0,0-2.9.78,6.34,6.34,0,0,0-1.91,2,10.85,10.85,0,0,0-1.17,2.84,21.82,21.82,0,0,0-.59,3.19c-.13,1.08-.19,2.13-.22,3.15s0,1.88,0,2.6C1125,1270.87,1125.09,1272.31,1125.16,1274Z"/><path class="cls-1" d="M1188.81,1290.78v-27.15h-10.53v-6.4a20.07,20.07,0,0,0,4.28-.33,11.3,11.3,0,0,0,3.71-1.38,9.05,9.05,0,0,0,2.78-2.6,9.22,9.22,0,0,0,1.49-4h6.76v41.87Z"/><path class="cls-1" d="M1232.83,1256a4.92,4.92,0,0,0-3.71-1.55,5.52,5.52,0,0,0-3.8,1.34,10,10,0,0,0-2.42,3.29,17.86,17.86,0,0,0-1.31,4.16,26.33,26.33,0,0,0-.49,4l.13.12a10.11,10.11,0,0,1,4.06-3.59,12.71,12.71,0,0,1,5.39-1.08,12.57,12.57,0,0,1,5.26,1.17,13,13,0,0,1,4.36,3.14,12.07,12.07,0,0,1,2.46,4.36,16.36,16.36,0,0,1,.77,5,16.87,16.87,0,0,1-1,6,14.59,14.59,0,0,1-3,4.85,14,14,0,0,1-4.63,3.23,16.71,16.71,0,0,1-13.82-.72,14.59,14.59,0,0,1-5-4.94,20.4,20.4,0,0,1-2.57-6.91,42.72,42.72,0,0,1-.72-7.86,35,35,0,0,1,.9-7.78,22.72,22.72,0,0,1,2.87-7,16.2,16.2,0,0,1,5.08-5.11,13.89,13.89,0,0,1,7.6-2,15.82,15.82,0,0,1,5,.77,12.85,12.85,0,0,1,4.12,2.25,11.45,11.45,0,0,1,2.93,3.62,14.41,14.41,0,0,1,1.5,5h-8.08A7.22,7.22,0,0,0,1232.83,1256Zm-7.15,13.67a6,6,0,0,0-2.12,1.7,7.5,7.5,0,0,0-1.26,2.49,10.57,10.57,0,0,0-.42,2.95,9.29,9.29,0,0,0,.46,2.85,7.71,7.71,0,0,0,1.31,2.51,6.64,6.64,0,0,0,2.13,1.77,6,6,0,0,0,2.86.65,5.4,5.4,0,0,0,2.72-.65,6.83,6.83,0,0,0,2-1.74,7.38,7.38,0,0,0,1.25-2.45,9.63,9.63,0,0,0,.43-2.81,10.74,10.74,0,0,0-.4-2.9,7.92,7.92,0,0,0-1.16-2.51,6,6,0,0,0-2-1.8,5.66,5.66,0,0,0-2.84-.69A6.67,6.67,0,0,0,1225.68,1269.7Z"/><path class="cls-1" d="M1251.7,1259.41a18.42,18.42,0,0,1,3.32-6.67,12,12,0,0,1,4.88-3.59,16.08,16.08,0,0,1,5.89-1.07,16.32,16.32,0,0,1,6,1.07,12.27,12.27,0,0,1,4.91,3.59,18.28,18.28,0,0,1,3.34,6.67,36.64,36.64,0,0,1,1.23,10.26,38.18,38.18,0,0,1-1.23,10.5,18.35,18.35,0,0,1-3.34,6.73,12.27,12.27,0,0,1-4.91,3.59,16.53,16.53,0,0,1-6,1.07,16.29,16.29,0,0,1-5.89-1.07,12,12,0,0,1-4.88-3.59,18.49,18.49,0,0,1-3.32-6.73,38.22,38.22,0,0,1-1.22-10.5A36.68,36.68,0,0,1,1251.7,1259.41Zm7.39,14.59a23.18,23.18,0,0,0,.75,4.91,10.36,10.36,0,0,0,2,4,4.8,4.8,0,0,0,4,1.67,5,5,0,0,0,4-1.67,10.4,10.4,0,0,0,2-4,23.18,23.18,0,0,0,.75-4.91c.08-1.69.12-3.13.12-4.33,0-.72,0-1.59,0-2.6a28.92,28.92,0,0,0-.24-3.15,31.43,31.43,0,0,0-.6-3.19,9.64,9.64,0,0,0-1.17-2.84,6.41,6.41,0,0,0-2-2,5.25,5.25,0,0,0-2.93-.78,5.1,5.1,0,0,0-2.9.78,6.26,6.26,0,0,0-1.92,2,10.85,10.85,0,0,0-1.17,2.84,23.24,23.24,0,0,0-.59,3.19q-.18,1.62-.21,3.15c0,1,0,1.88,0,2.6C1259,1270.87,1259,1272.31,1259.09,1274Z"/><path class="cls-1" d="M1289.44,1259.41a18.59,18.59,0,0,1,3.32-6.67,12,12,0,0,1,4.88-3.59,16.11,16.11,0,0,1,5.89-1.07,16.37,16.37,0,0,1,6,1.07,12.3,12.3,0,0,1,4.9,3.59,18.29,18.29,0,0,1,3.35,6.67,37.05,37.05,0,0,1,1.22,10.26,38.61,38.61,0,0,1-1.22,10.5,18.35,18.35,0,0,1-3.35,6.73,12.3,12.3,0,0,1-4.9,3.59,16.59,16.59,0,0,1-6,1.07,16.33,16.33,0,0,1-5.89-1.07,12,12,0,0,1-4.88-3.59,18.65,18.65,0,0,1-3.32-6.73,38.61,38.61,0,0,1-1.22-10.5A37.05,37.05,0,0,1,1289.44,1259.41Zm7.39,14.59a23.18,23.18,0,0,0,.75,4.91,10.36,10.36,0,0,0,2,4,4.82,4.82,0,0,0,4,1.67,5,5,0,0,0,4-1.67,10.27,10.27,0,0,0,2-4,23.18,23.18,0,0,0,.75-4.91c.08-1.69.12-3.13.12-4.33,0-.72,0-1.59,0-2.6a29.16,29.16,0,0,0-.84-6.34,9.64,9.64,0,0,0-1.17-2.84,6.51,6.51,0,0,0-2-2,5.27,5.27,0,0,0-2.93-.78,5.1,5.1,0,0,0-2.9.78,6.23,6.23,0,0,0-1.91,2,10.52,10.52,0,0,0-1.17,2.84,21.85,21.85,0,0,0-.6,3.19q-.18,1.62-.21,3.15c0,1,0,1.88,0,2.6C1296.71,1270.87,1296.75,1272.31,1296.83,1274Z"/><path class="cls-2" d="M1313.88,1192.33h79.28v-4.21h-79.28Zm-162.16-4.21,1.45,4.21h65.25l1.43-4.21Zm-94-188.82H978.42v32.78h79.28Zm0,43.61H978.42V1073h79.28Zm0,40.9H978.42v24.66h79.28Zm0,35.49H978.42v18.64h79.28Zm0,24H978.42v10.83h79.28Zm0,16.24H978.42v10.83h79.28Zm0,16.24H978.42v6.88h79.28Zm173.66-21.65,3.67-10.83h-98.64l3.71,10.83Zm-96.82-16.24h102.33l6.32-18.64h-115Zm91.31,32.48,3.68-10.83H1142l3.71,10.83Zm29.38-86.61H1116l8.45,24.66h122.43Zm-105.37,98.9h71.83l2.33-6.88h-76.51Zm-171.44,9.62h79.28v-4.21H978.42Zm103.07-209.27h77.3l-61.18-183.44H978.42V983.06h79.28V916.77h1.08Zm16.79,49h76.86l-10.93-32.78h-77.16Zm170.82,10.83h-71.9l-8.44,26.77h-1.08l-8.93-26.77H1102l10.3,30.07H1258.9Zm14.78-43.61H1211l-10.35,32.78h72.15Zm30-16.24h79.29V799.62H1274l-57.89,183.44h73.3l23.42-69h1.07Zm0,49h79.28V999.31h-79.28Zm0,40.9h79.28V1042.9h-79.28Zm0,35.49h79.28v-24.66h-79.28Zm0,29.47h79.28v-18.65h-79.28Zm0,16.24h79.28v-10.83h-79.28Zm0,16.24h79.28v-10.83h-79.28Zm79.29,5.41h-79.28v6.88h79.28Z"/><path class="cls-2" d="M811.59,1188.12l2.76,4.21H920.44l-2.93-4.21Zm-246,4.21H650.1v-4.21H565.55Zm0-54.39H650.1v-18.65H565.55Zm84.55,5.41H565.56v10.83H650.1Zm-84.55-34.88H650.1v-24.66H565.55Zm0-35.49H650.1v-7.16l22.19-22.91H565.55Zm0,97.44H650.1v-10.83H565.55Zm221-171.12h-221v32.78H682.78l15.79-16.3,10.69,16.3h100Zm30.25,43.61H716.36L736.08,1073H837.67Zm28.36,40.9h-102l16.18,24.66H862.28Zm24.61,35.48H766.45l12.23,18.65h104Zm16.69,24.06H782.23l7.1,10.83H894Zm11.26,16.24H792.88l7.1,10.83H905.24Zm-332.18,23.12H650.1v-6.88H565.55Zm190.1-228L905.9,799.62H800.35L650.1,962.42V799.62H565.55V983.06H775.3Zm158.11,228-4.77-6.88H803.53l4.51,6.88Z"/><path class="cls-3" d="M314.91,934V991.5L368,934h37.3l-53.1,54.74,58.24,83.86H373L332,1010.33,314.91,1028v44.64H285V934Z"/><path class="cls-3" d="M421.1,975.1a69.64,69.64,0,0,1,13.14-23.2,59.9,59.9,0,0,1,21-15.53,67.46,67.46,0,0,1,28.07-5.63q15.8,0,28.16,5.63a60.29,60.29,0,0,1,20.94,15.53,69.45,69.45,0,0,1,13.13,23.2,88,88,0,0,1,4.57,28.82,85.13,85.13,0,0,1-4.57,28.25A67.72,67.72,0,0,1,532.44,1055a60.44,60.44,0,0,1-20.94,15.24q-12.37,5.54-28.16,5.53a68.4,68.4,0,0,1-28.07-5.53,60,60,0,0,1-21-15.24,67.91,67.91,0,0,1-13.14-22.81,85.38,85.38,0,0,1-4.56-28.25A88.26,88.26,0,0,1,421.1,975.1Zm27.31,45.81a46.51,46.51,0,0,0,6.38,14.85,32.86,32.86,0,0,0,11.42,10.58q7,4,17.13,4t17.13-4a33,33,0,0,0,11.42-10.58,46.49,46.49,0,0,0,6.37-14.85,72,72,0,0,0,2-17,77.42,77.42,0,0,0-2-17.66A47.31,47.31,0,0,0,511.89,971a32.76,32.76,0,0,0-11.42-10.68q-7.05-4-17.13-4t-17.13,4A32.68,32.68,0,0,0,454.79,971a47.33,47.33,0,0,0-6.38,15.24,77.42,77.42,0,0,0-2,17.66A72,72,0,0,0,448.41,1020.91Z"/><path class="cls-3" d="M623.41,934a68.9,68.9,0,0,1,24.46,4.27,53.13,53.13,0,0,1,19.6,12.81,59.35,59.35,0,0,1,12.94,21.36q4.67,12.81,4.66,30.08a98.09,98.09,0,0,1-3.8,28,61.94,61.94,0,0,1-11.52,22.13,54.16,54.16,0,0,1-19.22,14.66q-11.52,5.32-27.12,5.33H564.79V934Zm-2.09,113a37.55,37.55,0,0,0,12.56-2.14,27.6,27.6,0,0,0,10.85-7.08,35.83,35.83,0,0,0,7.61-12.91c1.9-5.31,2.85-11.77,2.85-19.42a81.92,81.92,0,0,0-2-18.92,38.11,38.11,0,0,0-6.56-14.46,29.14,29.14,0,0,0-12.09-9.22Q627,959.66,616,959.66H594.67V1047Z"/><path class="cls-3" d="M773.57,934l50.81,138.6h-31l-10.28-30.87H732.27l-10.66,30.87H691.54L742.93,934Zm1.71,85L758.15,968.2h-.38l-17.7,50.86Z"/><path class="cls-3" d="M866.06,934V991.5L919.16,934h37.3l-53.1,54.74,58.24,83.86H924.11l-40.92-62.31L866.06,1028v44.64H836.18V934Z"/><path class="cls-3" d="M1068.55,934l31.79,95.31h.38L1130.79,934h42v138.6h-28V974.42h-.38l-33.31,98.22h-23l-33.31-97.25h-.38v97.25h-28V934Z"/><path class="cls-3" d="M1197.78,975.1a69.45,69.45,0,0,1,13.13-23.2,60.08,60.08,0,0,1,21-15.53,67.52,67.52,0,0,1,28.07-5.63q15.79,0,28.17,5.63a60.35,60.35,0,0,1,20.93,15.53,69.45,69.45,0,0,1,13.13,23.2,88,88,0,0,1,4.57,28.82,85.13,85.13,0,0,1-4.57,28.25,67.72,67.72,0,0,1-13.13,22.81,60.49,60.49,0,0,1-20.93,15.24q-12.37,5.54-28.17,5.53a68.47,68.47,0,0,1-28.07-5.53,60.23,60.23,0,0,1-21-15.24,67.72,67.72,0,0,1-13.13-22.81,85.13,85.13,0,0,1-4.57-28.25A88,88,0,0,1,1197.78,975.1Zm27.31,45.81a46.27,46.27,0,0,0,6.37,14.85,33,33,0,0,0,11.42,10.58q7,4,17.13,4t17.13-4a33,33,0,0,0,11.42-10.58,46.73,46.73,0,0,0,6.38-14.85,72.53,72.53,0,0,0,2-17,78,78,0,0,0-2-17.66,47.55,47.55,0,0,0-6.38-15.24,32.76,32.76,0,0,0-11.42-10.68q-7-4-17.13-4t-17.13,4A32.76,32.76,0,0,0,1231.46,971a47.09,47.09,0,0,0-6.37,15.24,76.87,76.87,0,0,0-2,17.66A71.49,71.49,0,0,0,1225.09,1020.91Z"/><path class="cls-3" d="M1420.45,934a43.14,43.14,0,0,1,16.46,3,38,38,0,0,1,12.56,8.25,36,36,0,0,1,8,12.13,39.61,39.61,0,0,1,2.76,14.85q0,12.24-5,21.16T1438.71,1007v.39a22.78,22.78,0,0,1,9.14,4.76,26.17,26.17,0,0,1,5.9,7.56,36,36,0,0,1,3.33,9.61,85.78,85.78,0,0,1,1.43,10.49c.13,2.2.25,4.79.38,7.76s.35,6,.67,9.12a61,61,0,0,0,1.52,8.84,20.35,20.35,0,0,0,3.14,7.08h-29.88a54.55,54.55,0,0,1-3-15.72q-.57-9.12-1.71-17.47-1.53-10.87-6.47-15.92t-16.18-5h-29.88v54.16h-29.87V934Zm-10.66,62.7q10.28,0,15.41-4.66t5.14-15.14c0-6.72-1.71-11.62-5.14-14.66s-8.56-4.56-15.41-4.56h-32.74v39Z"/><path class="cls-3" d="M1470.69,959.66V934H1582v25.62h-40.73v113h-29.88v-113Z"/><path class="cls-3" d="M1583,934h33.49l31.79,54.74,31.6-54.74h33.3l-50.43,85.41v53.19h-29.88v-54Z"/><path class="cls-4" d="M314.91,934V991.5L368,934h37.3l-53.1,54.74,58.24,83.86H373L332,1010.33,314.91,1028v44.64H285V934Z"/><path class="cls-4" d="M421.1,975.1a69.64,69.64,0,0,1,13.14-23.2,59.9,59.9,0,0,1,21-15.53,67.46,67.46,0,0,1,28.07-5.63q15.8,0,28.16,5.63a60.29,60.29,0,0,1,20.94,15.53,69.45,69.45,0,0,1,13.13,23.2,88,88,0,0,1,4.57,28.82,85.13,85.13,0,0,1-4.57,28.25A67.72,67.72,0,0,1,532.44,1055a60.44,60.44,0,0,1-20.94,15.24q-12.37,5.54-28.16,5.53a68.4,68.4,0,0,1-28.07-5.53,60,60,0,0,1-21-15.24,67.91,67.91,0,0,1-13.14-22.81,85.38,85.38,0,0,1-4.56-28.25A88.26,88.26,0,0,1,421.1,975.1Zm27.31,45.81a46.51,46.51,0,0,0,6.38,14.85,32.86,32.86,0,0,0,11.42,10.58q7,4,17.13,4t17.13-4a33,33,0,0,0,11.42-10.58,46.49,46.49,0,0,0,6.37-14.85,72,72,0,0,0,2-17,77.42,77.42,0,0,0-2-17.66A47.31,47.31,0,0,0,511.89,971a32.76,32.76,0,0,0-11.42-10.68q-7.05-4-17.13-4t-17.13,4A32.68,32.68,0,0,0,454.79,971a47.33,47.33,0,0,0-6.38,15.24,77.42,77.42,0,0,0-2,17.66A72,72,0,0,0,448.41,1020.91Z"/><path class="cls-4" d="M623.41,934a68.9,68.9,0,0,1,24.46,4.27,53.13,53.13,0,0,1,19.6,12.81,59.35,59.35,0,0,1,12.94,21.36q4.67,12.81,4.66,30.08a98.09,98.09,0,0,1-3.8,28,61.94,61.94,0,0,1-11.52,22.13,54.16,54.16,0,0,1-19.22,14.66q-11.52,5.32-27.12,5.33H564.79V934Zm-2.09,113a37.55,37.55,0,0,0,12.56-2.14,27.6,27.6,0,0,0,10.85-7.08,35.83,35.83,0,0,0,7.61-12.91c1.9-5.31,2.85-11.77,2.85-19.42a81.92,81.92,0,0,0-2-18.92,38.11,38.11,0,0,0-6.56-14.46,29.14,29.14,0,0,0-12.09-9.22Q627,959.66,616,959.66H594.67V1047Z"/><path class="cls-4" d="M773.57,934l50.81,138.6h-31l-10.28-30.87H732.27l-10.66,30.87H691.54L742.93,934Zm1.71,85L758.15,968.2h-.38l-17.7,50.86Z"/><path class="cls-4" d="M866.06,934V991.5L919.16,934h37.3l-53.1,54.74,58.24,83.86H924.11l-40.92-62.31L866.06,1028v44.64H836.18V934Z"/><path class="cls-4" d="M1068.55,934l31.79,95.31h.38L1130.79,934h42v138.6h-28V974.42h-.38l-33.31,98.22h-23l-33.31-97.25h-.38v97.25h-28V934Z"/><path class="cls-4" d="M1197.78,975.1a69.45,69.45,0,0,1,13.13-23.2,60.08,60.08,0,0,1,21-15.53,67.52,67.52,0,0,1,28.07-5.63q15.79,0,28.17,5.63a60.35,60.35,0,0,1,20.93,15.53,69.45,69.45,0,0,1,13.13,23.2,88,88,0,0,1,4.57,28.82,85.13,85.13,0,0,1-4.57,28.25,67.72,67.72,0,0,1-13.13,22.81,60.49,60.49,0,0,1-20.93,15.24q-12.37,5.54-28.17,5.53a68.47,68.47,0,0,1-28.07-5.53,60.23,60.23,0,0,1-21-15.24,67.72,67.72,0,0,1-13.13-22.81,85.13,85.13,0,0,1-4.57-28.25A88,88,0,0,1,1197.78,975.1Zm27.31,45.81a46.27,46.27,0,0,0,6.37,14.85,33,33,0,0,0,11.42,10.58q7,4,17.13,4t17.13-4a33,33,0,0,0,11.42-10.58,46.73,46.73,0,0,0,6.38-14.85,72.53,72.53,0,0,0,2-17,78,78,0,0,0-2-17.66,47.55,47.55,0,0,0-6.38-15.24,32.76,32.76,0,0,0-11.42-10.68q-7-4-17.13-4t-17.13,4A32.76,32.76,0,0,0,1231.46,971a47.09,47.09,0,0,0-6.37,15.24,76.87,76.87,0,0,0-2,17.66A71.49,71.49,0,0,0,1225.09,1020.91Z"/><path class="cls-4" d="M1420.45,934a43.14,43.14,0,0,1,16.46,3,38,38,0,0,1,12.56,8.25,36,36,0,0,1,8,12.13,39.61,39.61,0,0,1,2.76,14.85q0,12.24-5,21.16T1438.71,1007v.39a22.78,22.78,0,0,1,9.14,4.76,26.17,26.17,0,0,1,5.9,7.56,36,36,0,0,1,3.33,9.61,85.78,85.78,0,0,1,1.43,10.49c.13,2.2.25,4.79.38,7.76s.35,6,.67,9.12a61,61,0,0,0,1.52,8.84,20.35,20.35,0,0,0,3.14,7.08h-29.88a54.55,54.55,0,0,1-3-15.72q-.57-9.12-1.71-17.47-1.53-10.87-6.47-15.92t-16.18-5h-29.88v54.16h-29.87V934Zm-10.66,62.7q10.28,0,15.41-4.66t5.14-15.14c0-6.72-1.71-11.62-5.14-14.66s-8.56-4.56-15.41-4.56h-32.74v39Z"/><path class="cls-4" d="M1470.69,959.66V934H1582v25.62h-40.73v113h-29.88v-113Z"/><path class="cls-4" d="M1583,934h33.49l31.79,54.74,31.6-54.74h33.3l-50.43,85.41v53.19h-29.88v-54Z"/></svg>